<?xml version="1.0" encoding="utf-8" standalone="no"?>
<!DOCTYPE svg PUBLIC "-//W3C//DTD SVG 1.1//EN"
  "http://www.w3.org/Graphics/SVG/1.1/DTD/svg11.dtd">
<svg xmlns:xlink="http://www.w3.org/1999/xlink" width="864pt" height="288pt" viewBox="0 0 864 288" xmlns="http://www.w3.org/2000/svg" version="1.1">
 <metadata>
  <rdf:RDF xmlns:dc="http://purl.org/dc/elements/1.1/" xmlns:cc="http://creativecommons.org/ns#" xmlns:rdf="http://www.w3.org/1999/02/22-rdf-syntax-ns#">
   <cc:Work>
    <dc:type rdf:resource="http://purl.org/dc/dcmitype/StillImage"/>
    <dc:date>2024-12-04T17:56:16.587512</dc:date>
    <dc:format>image/svg+xml</dc:format>
    <dc:creator>
     <cc:Agent>
      <dc:title>Matplotlib v3.8.0, https://matplotlib.org/</dc:title>
     </cc:Agent>
    </dc:creator>
   </cc:Work>
  </rdf:RDF>
 </metadata>
 <defs>
  <style type="text/css">*{stroke-linejoin: round; stroke-linecap: butt}</style>
 </defs>
 <g id="figure_1">
  <g id="patch_1">
   <path d="M 0 288 
L 864 288 
L 864 0 
L 0 0 
z
" style="fill: #ffffff"/>
  </g>
  <g id="axes_1">
   <g id="patch_2">
    <path d="M 24.88 246.04 
L 213.412021 246.04 
L 213.412021 25.44 
L 24.88 25.44 
z
" style="fill: #ffffff"/>
   </g>
   <g id="patch_3">
    <path d="M 37.255098 246.04 
L 39.875442 246.04 
L 39.875442 221.028662 
L 37.255098 221.028662 
z
" clip-path="url(#pa5884d2475)" style="fill: #1f77b4"/>
   </g>
   <g id="patch_4">
    <path d="M 39.875442 246.04 
L 42.495785 246.04 
L 42.495785 135.990113 
L 39.875442 135.990113 
z
" clip-path="url(#pa5884d2475)" style="fill: #1f77b4"/>
   </g>
   <g id="patch_5">
    <path d="M 42.495785 246.04 
L 45.116129 246.04 
L 45.116129 55.120121 
L 42.495785 55.120121 
z
" clip-path="url(#pa5884d2475)" style="fill: #1f77b4"/>
   </g>
   <g id="patch_6">
    <path d="M 45.116129 246.04 
L 47.736473 246.04 
L 47.736473 35.944762 
L 45.116129 35.944762 
z
" clip-path="url(#pa5884d2475)" style="fill: #1f77b4"/>
   </g>
   <g id="patch_7">
    <path d="M 47.736473 246.04 
L 50.356817 246.04 
L 50.356817 98.473107 
L 47.736473 98.473107 
z
" clip-path="url(#pa5884d2475)" style="fill: #1f77b4"/>
   </g>
   <g id="patch_8">
    <path d="M 50.356817 246.04 
L 52.97716 246.04 
L 52.97716 168.504853 
L 50.356817 168.504853 
z
" clip-path="url(#pa5884d2475)" style="fill: #1f77b4"/>
   </g>
   <g id="patch_9">
    <path d="M 52.97716 246.04 
L 55.597504 246.04 
L 55.597504 208.522993 
L 52.97716 208.522993 
z
" clip-path="url(#pa5884d2475)" style="fill: #1f77b4"/>
   </g>
   <g id="patch_10">
    <path d="M 55.597504 246.04 
L 58.217848 246.04 
L 58.217848 226.864641 
L 55.597504 226.864641 
z
" clip-path="url(#pa5884d2475)" style="fill: #1f77b4"/>
   </g>
   <g id="patch_11">
    <path d="M 58.217848 246.04 
L 60.838192 246.04 
L 60.838192 234.368042 
L 58.217848 234.368042 
z
" clip-path="url(#pa5884d2475)" style="fill: #1f77b4"/>
   </g>
   <g id="patch_12">
    <path d="M 60.838192 246.04 
L 63.458535 246.04 
L 63.458535 241.871444 
L 60.838192 241.871444 
z
" clip-path="url(#pa5884d2475)" style="fill: #1f77b4"/>
   </g>
   <g id="matplotlib.axis_1">
    <g id="xtick_1">
     <g id="line2d_1">
      <defs>
       <path id="ma841efdbb6" d="M 0 0 
L 0 3.5 
" style="stroke: #000000; stroke-width: 0.8"/>
      </defs>
      <g>
       <use xlink:href="#ma841efdbb6" x="33.449475" y="246.04" style="stroke: #000000; stroke-width: 0.8"/>
      </g>
     </g>
     <g id="text_1">
      <!-- 0.0 -->
      <g transform="translate(25.497913 260.638438) scale(0.1 -0.1)">
       <defs>
        <path id="DejaVuSans-30" d="M 2034 4250 
Q 1547 4250 1301 3770 
Q 1056 3291 1056 2328 
Q 1056 1369 1301 889 
Q 1547 409 2034 409 
Q 2525 409 2770 889 
Q 3016 1369 3016 2328 
Q 3016 3291 2770 3770 
Q 2525 4250 2034 4250 
z
M 2034 4750 
Q 2819 4750 3233 4129 
Q 3647 3509 3647 2328 
Q 3647 1150 3233 529 
Q 2819 -91 2034 -91 
Q 1250 -91 836 529 
Q 422 1150 422 2328 
Q 422 3509 836 4129 
Q 1250 4750 2034 4750 
z
" transform="scale(0.015625)"/>
        <path id="DejaVuSans-2e" d="M 684 794 
L 1344 794 
L 1344 0 
L 684 0 
L 684 794 
z
" transform="scale(0.015625)"/>
       </defs>
       <use xlink:href="#DejaVuSans-30"/>
       <use xlink:href="#DejaVuSans-2e" x="63.623047"/>
       <use xlink:href="#DejaVuSans-30" x="95.410156"/>
      </g>
     </g>
    </g>
    <g id="xtick_2">
     <g id="line2d_2">
      <g>
       <use xlink:href="#ma841efdbb6" x="77.187864" y="246.04" style="stroke: #000000; stroke-width: 0.8"/>
      </g>
     </g>
     <g id="text_2">
      <!-- 0.1 -->
      <g transform="translate(69.236302 260.638438) scale(0.1 -0.1)">
       <defs>
        <path id="DejaVuSans-31" d="M 794 531 
L 1825 531 
L 1825 4091 
L 703 3866 
L 703 4441 
L 1819 4666 
L 2450 4666 
L 2450 531 
L 3481 531 
L 3481 0 
L 794 0 
L 794 531 
z
" transform="scale(0.015625)"/>
       </defs>
       <use xlink:href="#DejaVuSans-30"/>
       <use xlink:href="#DejaVuSans-2e" x="63.623047"/>
       <use xlink:href="#DejaVuSans-31" x="95.410156"/>
      </g>
     </g>
    </g>
    <g id="xtick_3">
     <g id="line2d_3">
      <g>
       <use xlink:href="#ma841efdbb6" x="120.926253" y="246.04" style="stroke: #000000; stroke-width: 0.8"/>
      </g>
     </g>
     <g id="text_3">
      <!-- 0.2 -->
      <g transform="translate(112.97469 260.638438) scale(0.1 -0.1)">
       <defs>
        <path id="DejaVuSans-32" d="M 1228 531 
L 3431 531 
L 3431 0 
L 469 0 
L 469 531 
Q 828 903 1448 1529 
Q 2069 2156 2228 2338 
Q 2531 2678 2651 2914 
Q 2772 3150 2772 3378 
Q 2772 3750 2511 3984 
Q 2250 4219 1831 4219 
Q 1534 4219 1204 4116 
Q 875 4013 500 3803 
L 500 4441 
Q 881 4594 1212 4672 
Q 1544 4750 1819 4750 
Q 2544 4750 2975 4387 
Q 3406 4025 3406 3419 
Q 3406 3131 3298 2873 
Q 3191 2616 2906 2266 
Q 2828 2175 2409 1742 
Q 1991 1309 1228 531 
z
" transform="scale(0.015625)"/>
       </defs>
       <use xlink:href="#DejaVuSans-30"/>
       <use xlink:href="#DejaVuSans-2e" x="63.623047"/>
       <use xlink:href="#DejaVuSans-32" x="95.410156"/>
      </g>
     </g>
    </g>
    <g id="xtick_4">
     <g id="line2d_4">
      <g>
       <use xlink:href="#ma841efdbb6" x="164.664642" y="246.04" style="stroke: #000000; stroke-width: 0.8"/>
      </g>
     </g>
     <g id="text_4">
      <!-- 0.3 -->
      <g transform="translate(156.713079 260.638438) scale(0.1 -0.1)">
       <defs>
        <path id="DejaVuSans-33" d="M 2597 2516 
Q 3050 2419 3304 2112 
Q 3559 1806 3559 1356 
Q 3559 666 3084 287 
Q 2609 -91 1734 -91 
Q 1441 -91 1130 -33 
Q 819 25 488 141 
L 488 750 
Q 750 597 1062 519 
Q 1375 441 1716 441 
Q 2309 441 2620 675 
Q 2931 909 2931 1356 
Q 2931 1769 2642 2001 
Q 2353 2234 1838 2234 
L 1294 2234 
L 1294 2753 
L 1863 2753 
Q 2328 2753 2575 2939 
Q 2822 3125 2822 3475 
Q 2822 3834 2567 4026 
Q 2313 4219 1838 4219 
Q 1578 4219 1281 4162 
Q 984 4106 628 3988 
L 628 4550 
Q 988 4650 1302 4700 
Q 1616 4750 1894 4750 
Q 2613 4750 3031 4423 
Q 3450 4097 3450 3541 
Q 3450 3153 3228 2886 
Q 3006 2619 2597 2516 
z
" transform="scale(0.015625)"/>
       </defs>
       <use xlink:href="#DejaVuSans-30"/>
       <use xlink:href="#DejaVuSans-2e" x="63.623047"/>
       <use xlink:href="#DejaVuSans-33" x="95.410156"/>
      </g>
     </g>
    </g>
    <g id="xtick_5">
     <g id="line2d_5">
      <g>
       <use xlink:href="#ma841efdbb6" x="208.40303" y="246.04" style="stroke: #000000; stroke-width: 0.8"/>
      </g>
     </g>
     <g id="text_5">
      <!-- 0.4 -->
      <g transform="translate(200.451468 260.638438) scale(0.1 -0.1)">
       <defs>
        <path id="DejaVuSans-34" d="M 2419 4116 
L 825 1625 
L 2419 1625 
L 2419 4116 
z
M 2253 4666 
L 3047 4666 
L 3047 1625 
L 3713 1625 
L 3713 1100 
L 3047 1100 
L 3047 0 
L 2419 0 
L 2419 1100 
L 313 1100 
L 313 1709 
L 2253 4666 
z
" transform="scale(0.015625)"/>
       </defs>
       <use xlink:href="#DejaVuSans-30"/>
       <use xlink:href="#DejaVuSans-2e" x="63.623047"/>
       <use xlink:href="#DejaVuSans-34" x="95.410156"/>
      </g>
     </g>
    </g>
    <g id="text_6">
     <!-- time (seconds) -->
     <g transform="translate(81.921792 274.316562) scale(0.1 -0.1)">
      <defs>
       <path id="DejaVuSans-74" d="M 1172 4494 
L 1172 3500 
L 2356 3500 
L 2356 3053 
L 1172 3053 
L 1172 1153 
Q 1172 725 1289 603 
Q 1406 481 1766 481 
L 2356 481 
L 2356 0 
L 1766 0 
Q 1100 0 847 248 
Q 594 497 594 1153 
L 594 3053 
L 172 3053 
L 172 3500 
L 594 3500 
L 594 4494 
L 1172 4494 
z
" transform="scale(0.015625)"/>
       <path id="DejaVuSans-69" d="M 603 3500 
L 1178 3500 
L 1178 0 
L 603 0 
L 603 3500 
z
M 603 4863 
L 1178 4863 
L 1178 4134 
L 603 4134 
L 603 4863 
z
" transform="scale(0.015625)"/>
       <path id="DejaVuSans-6d" d="M 3328 2828 
Q 3544 3216 3844 3400 
Q 4144 3584 4550 3584 
Q 5097 3584 5394 3201 
Q 5691 2819 5691 2113 
L 5691 0 
L 5113 0 
L 5113 2094 
Q 5113 2597 4934 2840 
Q 4756 3084 4391 3084 
Q 3944 3084 3684 2787 
Q 3425 2491 3425 1978 
L 3425 0 
L 2847 0 
L 2847 2094 
Q 2847 2600 2669 2842 
Q 2491 3084 2119 3084 
Q 1678 3084 1418 2786 
Q 1159 2488 1159 1978 
L 1159 0 
L 581 0 
L 581 3500 
L 1159 3500 
L 1159 2956 
Q 1356 3278 1631 3431 
Q 1906 3584 2284 3584 
Q 2666 3584 2933 3390 
Q 3200 3197 3328 2828 
z
" transform="scale(0.015625)"/>
       <path id="DejaVuSans-65" d="M 3597 1894 
L 3597 1613 
L 953 1613 
Q 991 1019 1311 708 
Q 1631 397 2203 397 
Q 2534 397 2845 478 
Q 3156 559 3463 722 
L 3463 178 
Q 3153 47 2828 -22 
Q 2503 -91 2169 -91 
Q 1331 -91 842 396 
Q 353 884 353 1716 
Q 353 2575 817 3079 
Q 1281 3584 2069 3584 
Q 2775 3584 3186 3129 
Q 3597 2675 3597 1894 
z
M 3022 2063 
Q 3016 2534 2758 2815 
Q 2500 3097 2075 3097 
Q 1594 3097 1305 2825 
Q 1016 2553 972 2059 
L 3022 2063 
z
" transform="scale(0.015625)"/>
       <path id="DejaVuSans-20" transform="scale(0.015625)"/>
       <path id="DejaVuSans-28" d="M 1984 4856 
Q 1566 4138 1362 3434 
Q 1159 2731 1159 2009 
Q 1159 1288 1364 580 
Q 1569 -128 1984 -844 
L 1484 -844 
Q 1016 -109 783 600 
Q 550 1309 550 2009 
Q 550 2706 781 3412 
Q 1013 4119 1484 4856 
L 1984 4856 
z
" transform="scale(0.015625)"/>
       <path id="DejaVuSans-73" d="M 2834 3397 
L 2834 2853 
Q 2591 2978 2328 3040 
Q 2066 3103 1784 3103 
Q 1356 3103 1142 2972 
Q 928 2841 928 2578 
Q 928 2378 1081 2264 
Q 1234 2150 1697 2047 
L 1894 2003 
Q 2506 1872 2764 1633 
Q 3022 1394 3022 966 
Q 3022 478 2636 193 
Q 2250 -91 1575 -91 
Q 1294 -91 989 -36 
Q 684 19 347 128 
L 347 722 
Q 666 556 975 473 
Q 1284 391 1588 391 
Q 1994 391 2212 530 
Q 2431 669 2431 922 
Q 2431 1156 2273 1281 
Q 2116 1406 1581 1522 
L 1381 1569 
Q 847 1681 609 1914 
Q 372 2147 372 2553 
Q 372 3047 722 3315 
Q 1072 3584 1716 3584 
Q 2034 3584 2315 3537 
Q 2597 3491 2834 3397 
z
" transform="scale(0.015625)"/>
       <path id="DejaVuSans-63" d="M 3122 3366 
L 3122 2828 
Q 2878 2963 2633 3030 
Q 2388 3097 2138 3097 
Q 1578 3097 1268 2742 
Q 959 2388 959 1747 
Q 959 1106 1268 751 
Q 1578 397 2138 397 
Q 2388 397 2633 464 
Q 2878 531 3122 666 
L 3122 134 
Q 2881 22 2623 -34 
Q 2366 -91 2075 -91 
Q 1284 -91 818 406 
Q 353 903 353 1747 
Q 353 2603 823 3093 
Q 1294 3584 2113 3584 
Q 2378 3584 2631 3529 
Q 2884 3475 3122 3366 
z
" transform="scale(0.015625)"/>
       <path id="DejaVuSans-6f" d="M 1959 3097 
Q 1497 3097 1228 2736 
Q 959 2375 959 1747 
Q 959 1119 1226 758 
Q 1494 397 1959 397 
Q 2419 397 2687 759 
Q 2956 1122 2956 1747 
Q 2956 2369 2687 2733 
Q 2419 3097 1959 3097 
z
M 1959 3584 
Q 2709 3584 3137 3096 
Q 3566 2609 3566 1747 
Q 3566 888 3137 398 
Q 2709 -91 1959 -91 
Q 1206 -91 779 398 
Q 353 888 353 1747 
Q 353 2609 779 3096 
Q 1206 3584 1959 3584 
z
" transform="scale(0.015625)"/>
       <path id="DejaVuSans-6e" d="M 3513 2113 
L 3513 0 
L 2938 0 
L 2938 2094 
Q 2938 2591 2744 2837 
Q 2550 3084 2163 3084 
Q 1697 3084 1428 2787 
Q 1159 2491 1159 1978 
L 1159 0 
L 581 0 
L 581 3500 
L 1159 3500 
L 1159 2956 
Q 1366 3272 1645 3428 
Q 1925 3584 2291 3584 
Q 2894 3584 3203 3211 
Q 3513 2838 3513 2113 
z
" transform="scale(0.015625)"/>
       <path id="DejaVuSans-64" d="M 2906 2969 
L 2906 4863 
L 3481 4863 
L 3481 0 
L 2906 0 
L 2906 525 
Q 2725 213 2448 61 
Q 2172 -91 1784 -91 
Q 1150 -91 751 415 
Q 353 922 353 1747 
Q 353 2572 751 3078 
Q 1150 3584 1784 3584 
Q 2172 3584 2448 3432 
Q 2725 3281 2906 2969 
z
M 947 1747 
Q 947 1113 1208 752 
Q 1469 391 1925 391 
Q 2381 391 2643 752 
Q 2906 1113 2906 1747 
Q 2906 2381 2643 2742 
Q 2381 3103 1925 3103 
Q 1469 3103 1208 2742 
Q 947 2381 947 1747 
z
" transform="scale(0.015625)"/>
       <path id="DejaVuSans-29" d="M 513 4856 
L 1013 4856 
Q 1481 4119 1714 3412 
Q 1947 2706 1947 2009 
Q 1947 1309 1714 600 
Q 1481 -109 1013 -844 
L 513 -844 
Q 928 -128 1133 580 
Q 1338 1288 1338 2009 
Q 1338 2731 1133 3434 
Q 928 4138 513 4856 
z
" transform="scale(0.015625)"/>
      </defs>
      <use xlink:href="#DejaVuSans-74"/>
      <use xlink:href="#DejaVuSans-69" x="39.208984"/>
      <use xlink:href="#DejaVuSans-6d" x="66.992188"/>
      <use xlink:href="#DejaVuSans-65" x="164.404297"/>
      <use xlink:href="#DejaVuSans-20" x="225.927734"/>
      <use xlink:href="#DejaVuSans-28" x="257.714844"/>
      <use xlink:href="#DejaVuSans-73" x="296.728516"/>
      <use xlink:href="#DejaVuSans-65" x="348.828125"/>
      <use xlink:href="#DejaVuSans-63" x="410.351562"/>
      <use xlink:href="#DejaVuSans-6f" x="465.332031"/>
      <use xlink:href="#DejaVuSans-6e" x="526.513672"/>
      <use xlink:href="#DejaVuSans-64" x="589.892578"/>
      <use xlink:href="#DejaVuSans-73" x="653.369141"/>
      <use xlink:href="#DejaVuSans-29" x="705.46875"/>
     </g>
    </g>
   </g>
   <g id="matplotlib.axis_2">
    <g id="text_7">
     <!-- Density -->
     <g transform="translate(18.800312 154.748594) rotate(-90) scale(0.1 -0.1)">
      <defs>
       <path id="DejaVuSans-44" d="M 1259 4147 
L 1259 519 
L 2022 519 
Q 2988 519 3436 956 
Q 3884 1394 3884 2338 
Q 3884 3275 3436 3711 
Q 2988 4147 2022 4147 
L 1259 4147 
z
M 628 4666 
L 1925 4666 
Q 3281 4666 3915 4102 
Q 4550 3538 4550 2338 
Q 4550 1131 3912 565 
Q 3275 0 1925 0 
L 628 0 
L 628 4666 
z
" transform="scale(0.015625)"/>
       <path id="DejaVuSans-79" d="M 2059 -325 
Q 1816 -950 1584 -1140 
Q 1353 -1331 966 -1331 
L 506 -1331 
L 506 -850 
L 844 -850 
Q 1081 -850 1212 -737 
Q 1344 -625 1503 -206 
L 1606 56 
L 191 3500 
L 800 3500 
L 1894 763 
L 2988 3500 
L 3597 3500 
L 2059 -325 
z
" transform="scale(0.015625)"/>
      </defs>
      <use xlink:href="#DejaVuSans-44"/>
      <use xlink:href="#DejaVuSans-65" x="77.001953"/>
      <use xlink:href="#DejaVuSans-6e" x="138.525391"/>
      <use xlink:href="#DejaVuSans-73" x="201.904297"/>
      <use xlink:href="#DejaVuSans-69" x="254.003906"/>
      <use xlink:href="#DejaVuSans-74" x="281.787109"/>
      <use xlink:href="#DejaVuSans-79" x="320.996094"/>
     </g>
    </g>
   </g>
   <g id="patch_13">
    <path d="M 24.88 246.04 
L 24.88 25.44 
" style="fill: none; stroke: #000000; stroke-width: 0.8; stroke-linejoin: miter; stroke-linecap: square"/>
   </g>
   <g id="patch_14">
    <path d="M 213.412021 246.04 
L 213.412021 25.44 
" style="fill: none; stroke: #000000; stroke-width: 0.8; stroke-linejoin: miter; stroke-linecap: square"/>
   </g>
   <g id="patch_15">
    <path d="M 24.88 246.04 
L 213.412021 246.04 
" style="fill: none; stroke: #000000; stroke-width: 0.8; stroke-linejoin: miter; stroke-linecap: square"/>
   </g>
   <g id="patch_16">
    <path d="M 24.88 25.44 
L 213.412021 25.44 
" style="fill: none; stroke: #000000; stroke-width: 0.8; stroke-linejoin: miter; stroke-linecap: square"/>
   </g>
   <g id="text_8">
    <!-- Mean =0.03 seconds -->
    <g transform="translate(77.187864 70.960635) scale(0.1 -0.1)">
     <defs>
      <path id="DejaVuSans-4d" d="M 628 4666 
L 1569 4666 
L 2759 1491 
L 3956 4666 
L 4897 4666 
L 4897 0 
L 4281 0 
L 4281 4097 
L 3078 897 
L 2444 897 
L 1241 4097 
L 1241 0 
L 628 0 
L 628 4666 
z
" transform="scale(0.015625)"/>
      <path id="DejaVuSans-61" d="M 2194 1759 
Q 1497 1759 1228 1600 
Q 959 1441 959 1056 
Q 959 750 1161 570 
Q 1363 391 1709 391 
Q 2188 391 2477 730 
Q 2766 1069 2766 1631 
L 2766 1759 
L 2194 1759 
z
M 3341 1997 
L 3341 0 
L 2766 0 
L 2766 531 
Q 2569 213 2275 61 
Q 1981 -91 1556 -91 
Q 1019 -91 701 211 
Q 384 513 384 1019 
Q 384 1609 779 1909 
Q 1175 2209 1959 2209 
L 2766 2209 
L 2766 2266 
Q 2766 2663 2505 2880 
Q 2244 3097 1772 3097 
Q 1472 3097 1187 3025 
Q 903 2953 641 2809 
L 641 3341 
Q 956 3463 1253 3523 
Q 1550 3584 1831 3584 
Q 2591 3584 2966 3190 
Q 3341 2797 3341 1997 
z
" transform="scale(0.015625)"/>
      <path id="DejaVuSans-3d" d="M 678 2906 
L 4684 2906 
L 4684 2381 
L 678 2381 
L 678 2906 
z
M 678 1631 
L 4684 1631 
L 4684 1100 
L 678 1100 
L 678 1631 
z
" transform="scale(0.015625)"/>
     </defs>
     <use xlink:href="#DejaVuSans-4d"/>
     <use xlink:href="#DejaVuSans-65" x="86.279297"/>
     <use xlink:href="#DejaVuSans-61" x="147.802734"/>
     <use xlink:href="#DejaVuSans-6e" x="209.082031"/>
     <use xlink:href="#DejaVuSans-20" x="272.460938"/>
     <use xlink:href="#DejaVuSans-3d" x="304.248047"/>
     <use xlink:href="#DejaVuSans-30" x="388.037109"/>
     <use xlink:href="#DejaVuSans-2e" x="451.660156"/>
     <use xlink:href="#DejaVuSans-30" x="483.447266"/>
     <use xlink:href="#DejaVuSans-33" x="547.070312"/>
     <use xlink:href="#DejaVuSans-20" x="610.693359"/>
     <use xlink:href="#DejaVuSans-73" x="642.480469"/>
     <use xlink:href="#DejaVuSans-65" x="694.580078"/>
     <use xlink:href="#DejaVuSans-63" x="756.103516"/>
     <use xlink:href="#DejaVuSans-6f" x="811.083984"/>
     <use xlink:href="#DejaVuSans-6e" x="872.265625"/>
     <use xlink:href="#DejaVuSans-64" x="935.644531"/>
     <use xlink:href="#DejaVuSans-73" x="999.121094"/>
    </g>
   </g>
   <g id="text_9">
    <!-- Watson Crick cognate -->
    <g transform="translate(53.754448 19.44) scale(0.12 -0.12)">
     <defs>
      <path id="DejaVuSans-57" d="M 213 4666 
L 850 4666 
L 1831 722 
L 2809 4666 
L 3519 4666 
L 4500 722 
L 5478 4666 
L 6119 4666 
L 4947 0 
L 4153 0 
L 3169 4050 
L 2175 0 
L 1381 0 
L 213 4666 
z
" transform="scale(0.015625)"/>
      <path id="DejaVuSans-43" d="M 4122 4306 
L 4122 3641 
Q 3803 3938 3442 4084 
Q 3081 4231 2675 4231 
Q 1875 4231 1450 3742 
Q 1025 3253 1025 2328 
Q 1025 1406 1450 917 
Q 1875 428 2675 428 
Q 3081 428 3442 575 
Q 3803 722 4122 1019 
L 4122 359 
Q 3791 134 3420 21 
Q 3050 -91 2638 -91 
Q 1578 -91 968 557 
Q 359 1206 359 2328 
Q 359 3453 968 4101 
Q 1578 4750 2638 4750 
Q 3056 4750 3426 4639 
Q 3797 4528 4122 4306 
z
" transform="scale(0.015625)"/>
      <path id="DejaVuSans-72" d="M 2631 2963 
Q 2534 3019 2420 3045 
Q 2306 3072 2169 3072 
Q 1681 3072 1420 2755 
Q 1159 2438 1159 1844 
L 1159 0 
L 581 0 
L 581 3500 
L 1159 3500 
L 1159 2956 
Q 1341 3275 1631 3429 
Q 1922 3584 2338 3584 
Q 2397 3584 2469 3576 
Q 2541 3569 2628 3553 
L 2631 2963 
z
" transform="scale(0.015625)"/>
      <path id="DejaVuSans-6b" d="M 581 4863 
L 1159 4863 
L 1159 1991 
L 2875 3500 
L 3609 3500 
L 1753 1863 
L 3688 0 
L 2938 0 
L 1159 1709 
L 1159 0 
L 581 0 
L 581 4863 
z
" transform="scale(0.015625)"/>
      <path id="DejaVuSans-67" d="M 2906 1791 
Q 2906 2416 2648 2759 
Q 2391 3103 1925 3103 
Q 1463 3103 1205 2759 
Q 947 2416 947 1791 
Q 947 1169 1205 825 
Q 1463 481 1925 481 
Q 2391 481 2648 825 
Q 2906 1169 2906 1791 
z
M 3481 434 
Q 3481 -459 3084 -895 
Q 2688 -1331 1869 -1331 
Q 1566 -1331 1297 -1286 
Q 1028 -1241 775 -1147 
L 775 -588 
Q 1028 -725 1275 -790 
Q 1522 -856 1778 -856 
Q 2344 -856 2625 -561 
Q 2906 -266 2906 331 
L 2906 616 
Q 2728 306 2450 153 
Q 2172 0 1784 0 
Q 1141 0 747 490 
Q 353 981 353 1791 
Q 353 2603 747 3093 
Q 1141 3584 1784 3584 
Q 2172 3584 2450 3431 
Q 2728 3278 2906 2969 
L 2906 3500 
L 3481 3500 
L 3481 434 
z
" transform="scale(0.015625)"/>
     </defs>
     <use xlink:href="#DejaVuSans-57"/>
     <use xlink:href="#DejaVuSans-61" x="92.501953"/>
     <use xlink:href="#DejaVuSans-74" x="153.78125"/>
     <use xlink:href="#DejaVuSans-73" x="192.990234"/>
     <use xlink:href="#DejaVuSans-6f" x="245.089844"/>
     <use xlink:href="#DejaVuSans-6e" x="306.271484"/>
     <use xlink:href="#DejaVuSans-20" x="369.650391"/>
     <use xlink:href="#DejaVuSans-43" x="401.4375"/>
     <use xlink:href="#DejaVuSans-72" x="471.261719"/>
     <use xlink:href="#DejaVuSans-69" x="512.375"/>
     <use xlink:href="#DejaVuSans-63" x="540.158203"/>
     <use xlink:href="#DejaVuSans-6b" x="595.138672"/>
     <use xlink:href="#DejaVuSans-20" x="653.048828"/>
     <use xlink:href="#DejaVuSans-63" x="684.835938"/>
     <use xlink:href="#DejaVuSans-6f" x="739.816406"/>
     <use xlink:href="#DejaVuSans-67" x="800.998047"/>
     <use xlink:href="#DejaVuSans-6e" x="864.474609"/>
     <use xlink:href="#DejaVuSans-61" x="927.853516"/>
     <use xlink:href="#DejaVuSans-74" x="989.132812"/>
     <use xlink:href="#DejaVuSans-65" x="1028.341797"/>
    </g>
   </g>
  </g>
  <g id="axes_2">
   <g id="patch_17">
    <path d="M 231.802131 246.04 
L 420.334152 246.04 
L 420.334152 25.44 
L 231.802131 25.44 
z
" style="fill: #ffffff"/>
   </g>
   <g id="patch_18">
    <path d="M 245.093183 246.04 
L 259.393053 246.04 
L 259.393053 105.632372 
L 245.093183 105.632372 
z
" clip-path="url(#pd8e4b8f97c)" style="fill: #1f77b4"/>
   </g>
   <g id="patch_19">
    <path d="M 259.393053 246.04 
L 273.692923 246.04 
L 273.692923 35.944762 
L 259.393053 35.944762 
z
" clip-path="url(#pd8e4b8f97c)" style="fill: #1f77b4"/>
   </g>
   <g id="patch_20">
    <path d="M 273.692923 246.04 
L 287.992793 246.04 
L 287.992793 160.866255 
L 273.692923 160.866255 
z
" clip-path="url(#pd8e4b8f97c)" style="fill: #1f77b4"/>
   </g>
   <g id="patch_21">
    <path d="M 287.992793 246.04 
L 302.292662 246.04 
L 302.292662 202.162616 
L 287.992793 202.162616 
z
" clip-path="url(#pd8e4b8f97c)" style="fill: #1f77b4"/>
   </g>
   <g id="patch_22">
    <path d="M 302.292662 246.04 
L 316.592532 246.04 
L 316.592532 222.810797 
L 302.292662 222.810797 
z
" clip-path="url(#pd8e4b8f97c)" style="fill: #1f77b4"/>
   </g>
   <g id="patch_23">
    <path d="M 316.592532 246.04 
L 330.892402 246.04 
L 330.892402 240.36175 
L 316.592532 240.36175 
z
" clip-path="url(#pd8e4b8f97c)" style="fill: #1f77b4"/>
   </g>
   <g id="patch_24">
    <path d="M 330.892402 246.04 
L 345.192272 246.04 
L 345.192272 242.426568 
L 330.892402 242.426568 
z
" clip-path="url(#pd8e4b8f97c)" style="fill: #1f77b4"/>
   </g>
   <g id="patch_25">
    <path d="M 345.192272 246.04 
L 359.492142 246.04 
L 359.492142 243.458977 
L 345.192272 243.458977 
z
" clip-path="url(#pd8e4b8f97c)" style="fill: #1f77b4"/>
   </g>
   <g id="patch_26">
    <path d="M 359.492142 246.04 
L 373.792012 246.04 
L 373.792012 245.007591 
L 359.492142 245.007591 
z
" clip-path="url(#pd8e4b8f97c)" style="fill: #1f77b4"/>
   </g>
   <g id="patch_27">
    <path d="M 373.792012 246.04 
L 388.091881 246.04 
L 388.091881 245.523795 
L 373.792012 245.523795 
z
" clip-path="url(#pd8e4b8f97c)" style="fill: #1f77b4"/>
   </g>
   <g id="matplotlib.axis_3">
    <g id="xtick_6">
     <g id="line2d_6">
      <g>
       <use xlink:href="#ma841efdbb6" x="240.371606" y="246.04" style="stroke: #000000; stroke-width: 0.8"/>
      </g>
     </g>
     <g id="text_10">
      <!-- 0.0 -->
      <g transform="translate(232.420044 260.638438) scale(0.1 -0.1)">
       <use xlink:href="#DejaVuSans-30"/>
       <use xlink:href="#DejaVuSans-2e" x="63.623047"/>
       <use xlink:href="#DejaVuSans-30" x="95.410156"/>
      </g>
     </g>
    </g>
    <g id="xtick_7">
     <g id="line2d_7">
      <g>
       <use xlink:href="#ma841efdbb6" x="284.109995" y="246.04" style="stroke: #000000; stroke-width: 0.8"/>
      </g>
     </g>
     <g id="text_11">
      <!-- 0.1 -->
      <g transform="translate(276.158433 260.638438) scale(0.1 -0.1)">
       <use xlink:href="#DejaVuSans-30"/>
       <use xlink:href="#DejaVuSans-2e" x="63.623047"/>
       <use xlink:href="#DejaVuSans-31" x="95.410156"/>
      </g>
     </g>
    </g>
    <g id="xtick_8">
     <g id="line2d_8">
      <g>
       <use xlink:href="#ma841efdbb6" x="327.848384" y="246.04" style="stroke: #000000; stroke-width: 0.8"/>
      </g>
     </g>
     <g id="text_12">
      <!-- 0.2 -->
      <g transform="translate(319.896821 260.638438) scale(0.1 -0.1)">
       <use xlink:href="#DejaVuSans-30"/>
       <use xlink:href="#DejaVuSans-2e" x="63.623047"/>
       <use xlink:href="#DejaVuSans-32" x="95.410156"/>
      </g>
     </g>
    </g>
    <g id="xtick_9">
     <g id="line2d_9">
      <g>
       <use xlink:href="#ma841efdbb6" x="371.586773" y="246.04" style="stroke: #000000; stroke-width: 0.8"/>
      </g>
     </g>
     <g id="text_13">
      <!-- 0.3 -->
      <g transform="translate(363.63521 260.638438) scale(0.1 -0.1)">
       <use xlink:href="#DejaVuSans-30"/>
       <use xlink:href="#DejaVuSans-2e" x="63.623047"/>
       <use xlink:href="#DejaVuSans-33" x="95.410156"/>
      </g>
     </g>
    </g>
    <g id="xtick_10">
     <g id="line2d_10">
      <g>
       <use xlink:href="#ma841efdbb6" x="415.325161" y="246.04" style="stroke: #000000; stroke-width: 0.8"/>
      </g>
     </g>
     <g id="text_14">
      <!-- 0.4 -->
      <g transform="translate(407.373599 260.638438) scale(0.1 -0.1)">
       <use xlink:href="#DejaVuSans-30"/>
       <use xlink:href="#DejaVuSans-2e" x="63.623047"/>
       <use xlink:href="#DejaVuSans-34" x="95.410156"/>
      </g>
     </g>
    </g>
    <g id="text_15">
     <!-- time (seconds) -->
     <g transform="translate(288.843923 274.316562) scale(0.1 -0.1)">
      <use xlink:href="#DejaVuSans-74"/>
      <use xlink:href="#DejaVuSans-69" x="39.208984"/>
      <use xlink:href="#DejaVuSans-6d" x="66.992188"/>
      <use xlink:href="#DejaVuSans-65" x="164.404297"/>
      <use xlink:href="#DejaVuSans-20" x="225.927734"/>
      <use xlink:href="#DejaVuSans-28" x="257.714844"/>
      <use xlink:href="#DejaVuSans-73" x="296.728516"/>
      <use xlink:href="#DejaVuSans-65" x="348.828125"/>
      <use xlink:href="#DejaVuSans-63" x="410.351562"/>
      <use xlink:href="#DejaVuSans-6f" x="465.332031"/>
      <use xlink:href="#DejaVuSans-6e" x="526.513672"/>
      <use xlink:href="#DejaVuSans-64" x="589.892578"/>
      <use xlink:href="#DejaVuSans-73" x="653.369141"/>
      <use xlink:href="#DejaVuSans-29" x="705.46875"/>
     </g>
    </g>
   </g>
   <g id="matplotlib.axis_4"/>
   <g id="patch_28">
    <path d="M 231.802131 246.04 
L 231.802131 25.44 
" style="fill: none; stroke: #000000; stroke-width: 0.8; stroke-linejoin: miter; stroke-linecap: square"/>
   </g>
   <g id="patch_29">
    <path d="M 420.334152 246.04 
L 420.334152 25.44 
" style="fill: none; stroke: #000000; stroke-width: 0.8; stroke-linejoin: miter; stroke-linecap: square"/>
   </g>
   <g id="patch_30">
    <path d="M 231.802131 246.04 
L 420.334152 246.04 
" style="fill: none; stroke: #000000; stroke-width: 0.8; stroke-linejoin: miter; stroke-linecap: square"/>
   </g>
   <g id="patch_31">
    <path d="M 231.802131 25.44 
L 420.334152 25.44 
" style="fill: none; stroke: #000000; stroke-width: 0.8; stroke-linejoin: miter; stroke-linecap: square"/>
   </g>
   <g id="text_16">
    <!-- Mean =0.071 seconds -->
    <g transform="translate(284.109995 78.273532) scale(0.1 -0.1)">
     <defs>
      <path id="DejaVuSans-37" d="M 525 4666 
L 3525 4666 
L 3525 4397 
L 1831 0 
L 1172 0 
L 2766 4134 
L 525 4134 
L 525 4666 
z
" transform="scale(0.015625)"/>
     </defs>
     <use xlink:href="#DejaVuSans-4d"/>
     <use xlink:href="#DejaVuSans-65" x="86.279297"/>
     <use xlink:href="#DejaVuSans-61" x="147.802734"/>
     <use xlink:href="#DejaVuSans-6e" x="209.082031"/>
     <use xlink:href="#DejaVuSans-20" x="272.460938"/>
     <use xlink:href="#DejaVuSans-3d" x="304.248047"/>
     <use xlink:href="#DejaVuSans-30" x="388.037109"/>
     <use xlink:href="#DejaVuSans-2e" x="451.660156"/>
     <use xlink:href="#DejaVuSans-30" x="483.447266"/>
     <use xlink:href="#DejaVuSans-37" x="547.070312"/>
     <use xlink:href="#DejaVuSans-31" x="610.693359"/>
     <use xlink:href="#DejaVuSans-20" x="674.316406"/>
     <use xlink:href="#DejaVuSans-73" x="706.103516"/>
     <use xlink:href="#DejaVuSans-65" x="758.203125"/>
     <use xlink:href="#DejaVuSans-63" x="819.726562"/>
     <use xlink:href="#DejaVuSans-6f" x="874.707031"/>
     <use xlink:href="#DejaVuSans-6e" x="935.888672"/>
     <use xlink:href="#DejaVuSans-64" x="999.267578"/>
     <use xlink:href="#DejaVuSans-73" x="1062.744141"/>
    </g>
   </g>
   <g id="text_17">
    <!-- wobble cognate -->
    <g transform="translate(278.303454 19.44) scale(0.12 -0.12)">
     <defs>
      <path id="DejaVuSans-77" d="M 269 3500 
L 844 3500 
L 1563 769 
L 2278 3500 
L 2956 3500 
L 3675 769 
L 4391 3500 
L 4966 3500 
L 4050 0 
L 3372 0 
L 2619 2869 
L 1863 0 
L 1184 0 
L 269 3500 
z
" transform="scale(0.015625)"/>
      <path id="DejaVuSans-62" d="M 3116 1747 
Q 3116 2381 2855 2742 
Q 2594 3103 2138 3103 
Q 1681 3103 1420 2742 
Q 1159 2381 1159 1747 
Q 1159 1113 1420 752 
Q 1681 391 2138 391 
Q 2594 391 2855 752 
Q 3116 1113 3116 1747 
z
M 1159 2969 
Q 1341 3281 1617 3432 
Q 1894 3584 2278 3584 
Q 2916 3584 3314 3078 
Q 3713 2572 3713 1747 
Q 3713 922 3314 415 
Q 2916 -91 2278 -91 
Q 1894 -91 1617 61 
Q 1341 213 1159 525 
L 1159 0 
L 581 0 
L 581 4863 
L 1159 4863 
L 1159 2969 
z
" transform="scale(0.015625)"/>
      <path id="DejaVuSans-6c" d="M 603 4863 
L 1178 4863 
L 1178 0 
L 603 0 
L 603 4863 
z
" transform="scale(0.015625)"/>
     </defs>
     <use xlink:href="#DejaVuSans-77"/>
     <use xlink:href="#DejaVuSans-6f" x="81.787109"/>
     <use xlink:href="#DejaVuSans-62" x="142.96875"/>
     <use xlink:href="#DejaVuSans-62" x="206.445312"/>
     <use xlink:href="#DejaVuSans-6c" x="269.921875"/>
     <use xlink:href="#DejaVuSans-65" x="297.705078"/>
     <use xlink:href="#DejaVuSans-20" x="359.228516"/>
     <use xlink:href="#DejaVuSans-63" x="391.015625"/>
     <use xlink:href="#DejaVuSans-6f" x="445.996094"/>
     <use xlink:href="#DejaVuSans-67" x="507.177734"/>
     <use xlink:href="#DejaVuSans-6e" x="570.654297"/>
     <use xlink:href="#DejaVuSans-61" x="634.033203"/>
     <use xlink:href="#DejaVuSans-74" x="695.3125"/>
     <use xlink:href="#DejaVuSans-65" x="734.521484"/>
    </g>
   </g>
  </g>
  <g id="axes_3">
   <g id="patch_32">
    <path d="M 438.724262 246.04 
L 627.256283 246.04 
L 627.256283 25.44 
L 438.724262 25.44 
z
" style="fill: #ffffff"/>
   </g>
   <g id="patch_33">
    <path d="M 447.711429 246.04 
L 464.808951 246.04 
L 464.808951 35.944762 
L 447.711429 35.944762 
z
" clip-path="url(#p93ac978127)" style="fill: #1f77b4"/>
   </g>
   <g id="patch_34">
    <path d="M 464.808951 246.04 
L 481.906473 246.04 
L 481.906473 125.31325 
L 464.808951 125.31325 
z
" clip-path="url(#p93ac978127)" style="fill: #1f77b4"/>
   </g>
   <g id="patch_35">
    <path d="M 481.906473 246.04 
L 499.003994 246.04 
L 499.003994 194.782287 
L 481.906473 194.782287 
z
" clip-path="url(#p93ac978127)" style="fill: #1f77b4"/>
   </g>
   <g id="patch_36">
    <path d="M 499.003994 246.04 
L 516.101516 246.04 
L 516.101516 224.094332 
L 499.003994 224.094332 
z
" clip-path="url(#p93ac978127)" style="fill: #1f77b4"/>
   </g>
   <g id="patch_37">
    <path d="M 516.101516 246.04 
L 533.199038 246.04 
L 533.199038 235.24621 
L 516.101516 235.24621 
z
" clip-path="url(#p93ac978127)" style="fill: #1f77b4"/>
   </g>
   <g id="patch_38">
    <path d="M 533.199038 246.04 
L 550.296559 246.04 
L 550.296559 241.077926 
L 533.199038 241.077926 
z
" clip-path="url(#p93ac978127)" style="fill: #1f77b4"/>
   </g>
   <g id="patch_39">
    <path d="M 550.296559 246.04 
L 567.394081 246.04 
L 567.394081 243.993784 
L 550.296559 243.993784 
z
" clip-path="url(#p93ac978127)" style="fill: #1f77b4"/>
   </g>
   <g id="patch_40">
    <path d="M 567.394081 246.04 
L 584.491603 246.04 
L 584.491603 245.426135 
L 567.394081 245.426135 
z
" clip-path="url(#p93ac978127)" style="fill: #1f77b4"/>
   </g>
   <g id="patch_41">
    <path d="M 584.491603 246.04 
L 601.589124 246.04 
L 601.589124 245.272669 
L 584.491603 245.272669 
z
" clip-path="url(#p93ac978127)" style="fill: #1f77b4"/>
   </g>
   <g id="patch_42">
    <path d="M 601.589124 246.04 
L 618.686646 246.04 
L 618.686646 245.733068 
L 601.589124 245.733068 
z
" clip-path="url(#p93ac978127)" style="fill: #1f77b4"/>
   </g>
   <g id="matplotlib.axis_5">
    <g id="xtick_11">
     <g id="line2d_11">
      <g>
       <use xlink:href="#ma841efdbb6" x="447.293737" y="246.04" style="stroke: #000000; stroke-width: 0.8"/>
      </g>
     </g>
     <g id="text_18">
      <!-- 0.0 -->
      <g transform="translate(439.342175 260.638438) scale(0.1 -0.1)">
       <use xlink:href="#DejaVuSans-30"/>
       <use xlink:href="#DejaVuSans-2e" x="63.623047"/>
       <use xlink:href="#DejaVuSans-30" x="95.410156"/>
      </g>
     </g>
    </g>
    <g id="xtick_12">
     <g id="line2d_12">
      <g>
       <use xlink:href="#ma841efdbb6" x="491.032126" y="246.04" style="stroke: #000000; stroke-width: 0.8"/>
      </g>
     </g>
     <g id="text_19">
      <!-- 0.1 -->
      <g transform="translate(483.080564 260.638438) scale(0.1 -0.1)">
       <use xlink:href="#DejaVuSans-30"/>
       <use xlink:href="#DejaVuSans-2e" x="63.623047"/>
       <use xlink:href="#DejaVuSans-31" x="95.410156"/>
      </g>
     </g>
    </g>
    <g id="xtick_13">
     <g id="line2d_13">
      <g>
       <use xlink:href="#ma841efdbb6" x="534.770515" y="246.04" style="stroke: #000000; stroke-width: 0.8"/>
      </g>
     </g>
     <g id="text_20">
      <!-- 0.2 -->
      <g transform="translate(526.818952 260.638438) scale(0.1 -0.1)">
       <use xlink:href="#DejaVuSans-30"/>
       <use xlink:href="#DejaVuSans-2e" x="63.623047"/>
       <use xlink:href="#DejaVuSans-32" x="95.410156"/>
      </g>
     </g>
    </g>
    <g id="xtick_14">
     <g id="line2d_14">
      <g>
       <use xlink:href="#ma841efdbb6" x="578.508904" y="246.04" style="stroke: #000000; stroke-width: 0.8"/>
      </g>
     </g>
     <g id="text_21">
      <!-- 0.3 -->
      <g transform="translate(570.557341 260.638438) scale(0.1 -0.1)">
       <use xlink:href="#DejaVuSans-30"/>
       <use xlink:href="#DejaVuSans-2e" x="63.623047"/>
       <use xlink:href="#DejaVuSans-33" x="95.410156"/>
      </g>
     </g>
    </g>
    <g id="xtick_15">
     <g id="line2d_15">
      <g>
       <use xlink:href="#ma841efdbb6" x="622.247293" y="246.04" style="stroke: #000000; stroke-width: 0.8"/>
      </g>
     </g>
     <g id="text_22">
      <!-- 0.4 -->
      <g transform="translate(614.29573 260.638438) scale(0.1 -0.1)">
       <use xlink:href="#DejaVuSans-30"/>
       <use xlink:href="#DejaVuSans-2e" x="63.623047"/>
       <use xlink:href="#DejaVuSans-34" x="95.410156"/>
      </g>
     </g>
    </g>
    <g id="text_23">
     <!-- time (seconds) -->
     <g transform="translate(495.766054 274.316562) scale(0.1 -0.1)">
      <use xlink:href="#DejaVuSans-74"/>
      <use xlink:href="#DejaVuSans-69" x="39.208984"/>
      <use xlink:href="#DejaVuSans-6d" x="66.992188"/>
      <use xlink:href="#DejaVuSans-65" x="164.404297"/>
      <use xlink:href="#DejaVuSans-20" x="225.927734"/>
      <use xlink:href="#DejaVuSans-28" x="257.714844"/>
      <use xlink:href="#DejaVuSans-73" x="296.728516"/>
      <use xlink:href="#DejaVuSans-65" x="348.828125"/>
      <use xlink:href="#DejaVuSans-63" x="410.351562"/>
      <use xlink:href="#DejaVuSans-6f" x="465.332031"/>
      <use xlink:href="#DejaVuSans-6e" x="526.513672"/>
      <use xlink:href="#DejaVuSans-64" x="589.892578"/>
      <use xlink:href="#DejaVuSans-73" x="653.369141"/>
      <use xlink:href="#DejaVuSans-29" x="705.46875"/>
     </g>
    </g>
   </g>
   <g id="matplotlib.axis_6"/>
   <g id="patch_43">
    <path d="M 438.724262 246.04 
L 438.724262 25.44 
" style="fill: none; stroke: #000000; stroke-width: 0.8; stroke-linejoin: miter; stroke-linecap: square"/>
   </g>
   <g id="patch_44">
    <path d="M 627.256283 246.04 
L 627.256283 25.44 
" style="fill: none; stroke: #000000; stroke-width: 0.8; stroke-linejoin: miter; stroke-linecap: square"/>
   </g>
   <g id="patch_45">
    <path d="M 438.724262 246.04 
L 627.256283 246.04 
" style="fill: none; stroke: #000000; stroke-width: 0.8; stroke-linejoin: miter; stroke-linecap: square"/>
   </g>
   <g id="patch_46">
    <path d="M 438.724262 25.44 
L 627.256283 25.44 
" style="fill: none; stroke: #000000; stroke-width: 0.8; stroke-linejoin: miter; stroke-linecap: square"/>
   </g>
   <g id="text_24">
    <!-- Mean =0.055 seconds -->
    <g transform="translate(491.032126 26.071769) scale(0.1 -0.1)">
     <defs>
      <path id="DejaVuSans-35" d="M 691 4666 
L 3169 4666 
L 3169 4134 
L 1269 4134 
L 1269 2991 
Q 1406 3038 1543 3061 
Q 1681 3084 1819 3084 
Q 2600 3084 3056 2656 
Q 3513 2228 3513 1497 
Q 3513 744 3044 326 
Q 2575 -91 1722 -91 
Q 1428 -91 1123 -41 
Q 819 9 494 109 
L 494 744 
Q 775 591 1075 516 
Q 1375 441 1709 441 
Q 2250 441 2565 725 
Q 2881 1009 2881 1497 
Q 2881 1984 2565 2268 
Q 2250 2553 1709 2553 
Q 1456 2553 1204 2497 
Q 953 2441 691 2322 
L 691 4666 
z
" transform="scale(0.015625)"/>
     </defs>
     <use xlink:href="#DejaVuSans-4d"/>
     <use xlink:href="#DejaVuSans-65" x="86.279297"/>
     <use xlink:href="#DejaVuSans-61" x="147.802734"/>
     <use xlink:href="#DejaVuSans-6e" x="209.082031"/>
     <use xlink:href="#DejaVuSans-20" x="272.460938"/>
     <use xlink:href="#DejaVuSans-3d" x="304.248047"/>
     <use xlink:href="#DejaVuSans-30" x="388.037109"/>
     <use xlink:href="#DejaVuSans-2e" x="451.660156"/>
     <use xlink:href="#DejaVuSans-30" x="483.447266"/>
     <use xlink:href="#DejaVuSans-35" x="547.070312"/>
     <use xlink:href="#DejaVuSans-35" x="610.693359"/>
     <use xlink:href="#DejaVuSans-20" x="674.316406"/>
     <use xlink:href="#DejaVuSans-73" x="706.103516"/>
     <use xlink:href="#DejaVuSans-65" x="758.203125"/>
     <use xlink:href="#DejaVuSans-63" x="819.726562"/>
     <use xlink:href="#DejaVuSans-6f" x="874.707031"/>
     <use xlink:href="#DejaVuSans-6e" x="935.888672"/>
     <use xlink:href="#DejaVuSans-64" x="999.267578"/>
     <use xlink:href="#DejaVuSans-73" x="1062.744141"/>
    </g>
   </g>
   <g id="text_25">
    <!-- near-cognate -->
    <g transform="translate(493.26746 19.44) scale(0.12 -0.12)">
     <defs>
      <path id="DejaVuSans-2d" d="M 313 2009 
L 1997 2009 
L 1997 1497 
L 313 1497 
L 313 2009 
z
" transform="scale(0.015625)"/>
     </defs>
     <use xlink:href="#DejaVuSans-6e"/>
     <use xlink:href="#DejaVuSans-65" x="63.378906"/>
     <use xlink:href="#DejaVuSans-61" x="124.902344"/>
     <use xlink:href="#DejaVuSans-72" x="186.181641"/>
     <use xlink:href="#DejaVuSans-2d" x="220.919922"/>
     <use xlink:href="#DejaVuSans-63" x="257.003906"/>
     <use xlink:href="#DejaVuSans-6f" x="311.984375"/>
     <use xlink:href="#DejaVuSans-67" x="373.166016"/>
     <use xlink:href="#DejaVuSans-6e" x="436.642578"/>
     <use xlink:href="#DejaVuSans-61" x="500.021484"/>
     <use xlink:href="#DejaVuSans-74" x="561.300781"/>
     <use xlink:href="#DejaVuSans-65" x="600.509766"/>
    </g>
   </g>
  </g>
  <g id="axes_4">
   <g id="patch_47">
    <path d="M 645.646393 246.04 
L 834.178414 246.04 
L 834.178414 25.44 
L 645.646393 25.44 
z
" style="fill: #ffffff"/>
   </g>
   <g id="patch_48">
    <path d="M 654.216031 246.04 
L 655.545413 246.04 
L 655.545413 35.944762 
L 654.216031 35.944762 
z
" clip-path="url(#p7e3d6c62a1)" style="fill: #1f77b4"/>
   </g>
   <g id="patch_49">
    <path d="M 655.545413 246.04 
L 656.874795 246.04 
L 656.874795 245.428814 
L 655.545413 245.428814 
z
" clip-path="url(#p7e3d6c62a1)" style="fill: #1f77b4"/>
   </g>
   <g id="patch_50">
    <path d="M 656.874795 246.04 
L 658.204178 246.04 
L 658.204178 245.887203 
L 656.874795 245.887203 
z
" clip-path="url(#p7e3d6c62a1)" style="fill: #1f77b4"/>
   </g>
   <g id="patch_51">
    <path d="M 658.204178 246.04 
L 659.53356 246.04 
L 659.53356 245.887203 
L 658.204178 245.887203 
z
" clip-path="url(#p7e3d6c62a1)" style="fill: #1f77b4"/>
   </g>
   <g id="patch_52">
    <path d="M 659.53356 246.04 
L 660.862943 246.04 
L 660.862943 246.04 
L 659.53356 246.04 
z
" clip-path="url(#p7e3d6c62a1)" style="fill: #1f77b4"/>
   </g>
   <g id="patch_53">
    <path d="M 660.862943 246.04 
L 662.192325 246.04 
L 662.192325 246.04 
L 660.862943 246.04 
z
" clip-path="url(#p7e3d6c62a1)" style="fill: #1f77b4"/>
   </g>
   <g id="patch_54">
    <path d="M 662.192325 246.04 
L 663.521708 246.04 
L 663.521708 246.04 
L 662.192325 246.04 
z
" clip-path="url(#p7e3d6c62a1)" style="fill: #1f77b4"/>
   </g>
   <g id="patch_55">
    <path d="M 663.521708 246.04 
L 664.85109 246.04 
L 664.85109 246.04 
L 663.521708 246.04 
z
" clip-path="url(#p7e3d6c62a1)" style="fill: #1f77b4"/>
   </g>
   <g id="patch_56">
    <path d="M 664.85109 246.04 
L 666.180473 246.04 
L 666.180473 246.04 
L 664.85109 246.04 
z
" clip-path="url(#p7e3d6c62a1)" style="fill: #1f77b4"/>
   </g>
   <g id="patch_57">
    <path d="M 666.180473 246.04 
L 667.509855 246.04 
L 667.509855 245.887203 
L 666.180473 245.887203 
z
" clip-path="url(#p7e3d6c62a1)" style="fill: #1f77b4"/>
   </g>
   <g id="matplotlib.axis_7">
    <g id="xtick_16">
     <g id="line2d_16">
      <g>
       <use xlink:href="#ma841efdbb6" x="654.215869" y="246.04" style="stroke: #000000; stroke-width: 0.8"/>
      </g>
     </g>
     <g id="text_26">
      <!-- 0.0 -->
      <g transform="translate(646.264306 260.638438) scale(0.1 -0.1)">
       <use xlink:href="#DejaVuSans-30"/>
       <use xlink:href="#DejaVuSans-2e" x="63.623047"/>
       <use xlink:href="#DejaVuSans-30" x="95.410156"/>
      </g>
     </g>
    </g>
    <g id="xtick_17">
     <g id="line2d_17">
      <g>
       <use xlink:href="#ma841efdbb6" x="697.954257" y="246.04" style="stroke: #000000; stroke-width: 0.8"/>
      </g>
     </g>
     <g id="text_27">
      <!-- 0.1 -->
      <g transform="translate(690.002695 260.638438) scale(0.1 -0.1)">
       <use xlink:href="#DejaVuSans-30"/>
       <use xlink:href="#DejaVuSans-2e" x="63.623047"/>
       <use xlink:href="#DejaVuSans-31" x="95.410156"/>
      </g>
     </g>
    </g>
    <g id="xtick_18">
     <g id="line2d_18">
      <g>
       <use xlink:href="#ma841efdbb6" x="741.692646" y="246.04" style="stroke: #000000; stroke-width: 0.8"/>
      </g>
     </g>
     <g id="text_28">
      <!-- 0.2 -->
      <g transform="translate(733.741084 260.638438) scale(0.1 -0.1)">
       <use xlink:href="#DejaVuSans-30"/>
       <use xlink:href="#DejaVuSans-2e" x="63.623047"/>
       <use xlink:href="#DejaVuSans-32" x="95.410156"/>
      </g>
     </g>
    </g>
    <g id="xtick_19">
     <g id="line2d_19">
      <g>
       <use xlink:href="#ma841efdbb6" x="785.431035" y="246.04" style="stroke: #000000; stroke-width: 0.8"/>
      </g>
     </g>
     <g id="text_29">
      <!-- 0.3 -->
      <g transform="translate(777.479472 260.638438) scale(0.1 -0.1)">
       <use xlink:href="#DejaVuSans-30"/>
       <use xlink:href="#DejaVuSans-2e" x="63.623047"/>
       <use xlink:href="#DejaVuSans-33" x="95.410156"/>
      </g>
     </g>
    </g>
    <g id="xtick_20">
     <g id="line2d_20">
      <g>
       <use xlink:href="#ma841efdbb6" x="829.169424" y="246.04" style="stroke: #000000; stroke-width: 0.8"/>
      </g>
     </g>
     <g id="text_30">
      <!-- 0.4 -->
      <g transform="translate(821.217861 260.638438) scale(0.1 -0.1)">
       <use xlink:href="#DejaVuSans-30"/>
       <use xlink:href="#DejaVuSans-2e" x="63.623047"/>
       <use xlink:href="#DejaVuSans-34" x="95.410156"/>
      </g>
     </g>
    </g>
    <g id="text_31">
     <!-- time (seconds) -->
     <g transform="translate(702.688185 274.316562) scale(0.1 -0.1)">
      <use xlink:href="#DejaVuSans-74"/>
      <use xlink:href="#DejaVuSans-69" x="39.208984"/>
      <use xlink:href="#DejaVuSans-6d" x="66.992188"/>
      <use xlink:href="#DejaVuSans-65" x="164.404297"/>
      <use xlink:href="#DejaVuSans-20" x="225.927734"/>
      <use xlink:href="#DejaVuSans-28" x="257.714844"/>
      <use xlink:href="#DejaVuSans-73" x="296.728516"/>
      <use xlink:href="#DejaVuSans-65" x="348.828125"/>
      <use xlink:href="#DejaVuSans-63" x="410.351562"/>
      <use xlink:href="#DejaVuSans-6f" x="465.332031"/>
      <use xlink:href="#DejaVuSans-6e" x="526.513672"/>
      <use xlink:href="#DejaVuSans-64" x="589.892578"/>
      <use xlink:href="#DejaVuSans-73" x="653.369141"/>
      <use xlink:href="#DejaVuSans-29" x="705.46875"/>
     </g>
    </g>
   </g>
   <g id="matplotlib.axis_8"/>
   <g id="patch_58">
    <path d="M 645.646393 246.04 
L 645.646393 25.44 
" style="fill: none; stroke: #000000; stroke-width: 0.8; stroke-linejoin: miter; stroke-linecap: square"/>
   </g>
   <g id="patch_59">
    <path d="M 834.178414 246.04 
L 834.178414 25.44 
" style="fill: none; stroke: #000000; stroke-width: 0.8; stroke-linejoin: miter; stroke-linecap: square"/>
   </g>
   <g id="patch_60">
    <path d="M 645.646393 246.04 
L 834.178414 246.04 
" style="fill: none; stroke: #000000; stroke-width: 0.8; stroke-linejoin: miter; stroke-linecap: square"/>
   </g>
   <g id="patch_61">
    <path d="M 645.646393 25.44 
L 834.178414 25.44 
" style="fill: none; stroke: #000000; stroke-width: 0.8; stroke-linejoin: miter; stroke-linecap: square"/>
   </g>
   <g id="text_32">
    <!-- Mean =0.00011 seconds -->
    <g transform="translate(697.954257 120.74684) scale(0.1 -0.1)">
     <use xlink:href="#DejaVuSans-4d"/>
     <use xlink:href="#DejaVuSans-65" x="86.279297"/>
     <use xlink:href="#DejaVuSans-61" x="147.802734"/>
     <use xlink:href="#DejaVuSans-6e" x="209.082031"/>
     <use xlink:href="#DejaVuSans-20" x="272.460938"/>
     <use xlink:href="#DejaVuSans-3d" x="304.248047"/>
     <use xlink:href="#DejaVuSans-30" x="388.037109"/>
     <use xlink:href="#DejaVuSans-2e" x="451.660156"/>
     <use xlink:href="#DejaVuSans-30" x="483.447266"/>
     <use xlink:href="#DejaVuSans-30" x="547.070312"/>
     <use xlink:href="#DejaVuSans-30" x="610.693359"/>
     <use xlink:href="#DejaVuSans-31" x="674.316406"/>
     <use xlink:href="#DejaVuSans-31" x="737.939453"/>
     <use xlink:href="#DejaVuSans-20" x="801.5625"/>
     <use xlink:href="#DejaVuSans-73" x="833.349609"/>
     <use xlink:href="#DejaVuSans-65" x="885.449219"/>
     <use xlink:href="#DejaVuSans-63" x="946.972656"/>
     <use xlink:href="#DejaVuSans-6f" x="1001.953125"/>
     <use xlink:href="#DejaVuSans-6e" x="1063.134766"/>
     <use xlink:href="#DejaVuSans-64" x="1126.513672"/>
     <use xlink:href="#DejaVuSans-73" x="1189.990234"/>
    </g>
   </g>
   <g id="text_33">
    <!-- non-cognate -->
    <g transform="translate(702.168654 19.44) scale(0.12 -0.12)">
     <use xlink:href="#DejaVuSans-6e"/>
     <use xlink:href="#DejaVuSans-6f" x="63.378906"/>
     <use xlink:href="#DejaVuSans-6e" x="124.560547"/>
     <use xlink:href="#DejaVuSans-2d" x="187.939453"/>
     <use xlink:href="#DejaVuSans-63" x="224.023438"/>
     <use xlink:href="#DejaVuSans-6f" x="279.003906"/>
     <use xlink:href="#DejaVuSans-67" x="340.185547"/>
     <use xlink:href="#DejaVuSans-6e" x="403.662109"/>
     <use xlink:href="#DejaVuSans-61" x="467.041016"/>
     <use xlink:href="#DejaVuSans-74" x="528.320312"/>
     <use xlink:href="#DejaVuSans-65" x="567.529297"/>
    </g>
   </g>
  </g>
 </g>
 <defs>
  <clipPath id="pa5884d2475">
   <rect x="24.88" y="25.44" width="188.532021" height="220.6"/>
  </clipPath>
  <clipPath id="pd8e4b8f97c">
   <rect x="231.802131" y="25.44" width="188.532021" height="220.6"/>
  </clipPath>
  <clipPath id="p93ac978127">
   <rect x="438.724262" y="25.44" width="188.532021" height="220.6"/>
  </clipPath>
  <clipPath id="p7e3d6c62a1">
   <rect x="645.646393" y="25.44" width="188.532021" height="220.6"/>
  </clipPath>
 </defs>
</svg>
